<svg xmlns="http://www.w3.org/2000/svg" width="12" height="12" viewBox="0 0 460 460"><g fill="#457a95" transform="translate(0,460) scale(0.1,-0.1)"><path d="M0 2300 l0 -2300 2300 0 2300 0 0 2300 0 2300 -2300 0 -2300 0 0 -2300z m4075 1889 c55 -5 160 -16 233 -26 122 -15 132 -18 132 -37 -1 -25 -124 -523 -131 -531 -3 -3 -64 1 -135 9 -207 24 -351 29 -449 16 -119 -15 -168 -38 -195 -94 -20 -43 -40 -167 -40 -258 l0 -48 343 -2 342 -3 0 -260 0 -260 -342 -3 -343 -2 0 -1065 0 -1065 -430 0 -430 0 0 1065 0 1065 -520 0 -521 0 3 -742 c2 -528 6 -750 14 -768 21 -46 54 -55 208 -55 78 0 188 4 246 8 l105 9 63 -272 c34 -150 61 -275 58 -277 -8 -8 -262 -42 -406 -54 -244 -20 -520 1 -686 52 -116 36 -242 106 -311 175 -73 73 -96 114 -125 226 -22 81 -22 98 -25 890 l-4 808 -217 2 -217 3 0 260 0 260 217 3 218 2 2 282 3 282 420 178 c231 98 423 178 428 178 4 0 7 -207 7 -460 l0 -460 519 0 518 0 6 188 c5 203 17 264 67 367 104 215 395 376 748 415 183 20 408 20 627 -1z"/></g></svg>